<svg data-v-423bf9ae="" xmlns="http://www.w3.org/2000/svg" viewBox="0 0 200.70744399328782 60" class="font"><!----><!----><!----><g data-v-423bf9ae="" id="e0047a3e-3d54-4790-9b61-4b8998e93ce2" fill="#488eff" transform="matrix(5.736137646384677,0,0,5.736137646384677,-4.416826733136787,-18.126194739656484)"><path d="M5.87 13.62L5.87 13.62Q4.42 13.62 3.26 12.97L3.26 12.97L3.26 12.97Q2.10 12.32 1.44 11.19L1.44 11.19L1.44 11.19Q0.77 10.05 0.77 8.65L0.77 8.65L0.77 8.65Q0.77 7.25 1.44 6.12L1.44 6.12L1.44 6.12Q2.10 4.98 3.26 4.33L3.26 4.33L3.26 4.33Q4.42 3.68 5.87 3.68L5.87 3.68L5.87 3.68Q7.31 3.68 8.47 4.33L8.47 4.33L8.47 4.33Q9.63 4.97 10.30 6.10L10.30 6.10L10.30 6.10Q10.96 7.24 10.96 8.65L10.96 8.65L10.96 8.65Q10.96 10.07 10.30 11.20L10.30 11.20L10.30 11.20Q9.63 12.33 8.47 12.98L8.47 12.98L8.47 12.98Q7.31 13.62 5.87 13.62L5.87 13.62ZM5.87 12.96L5.87 12.96Q7.10 12.96 8.09 12.40L8.09 12.40L8.09 12.40Q9.09 11.84 9.66 10.86L9.66 10.86L9.66 10.86Q10.23 9.87 10.23 8.65L10.23 8.65L10.23 8.65Q10.23 7.43 9.66 6.45L9.66 6.45L9.66 6.45Q9.09 5.46 8.09 4.90L8.09 4.90L8.09 4.90Q7.10 4.34 5.87 4.34L5.87 4.34L5.87 4.34Q4.63 4.34 3.63 4.90L3.63 4.90L3.63 4.90Q2.63 5.46 2.06 6.45L2.06 6.45L2.06 6.45Q1.48 7.43 1.48 8.65L1.48 8.65L1.48 8.65Q1.48 9.87 2.06 10.86L2.06 10.86L2.06 10.86Q2.63 11.84 3.63 12.40L3.63 12.40L3.63 12.40Q4.63 12.96 5.87 12.96L5.87 12.96ZM19.01 3.16L19.71 3.16L19.71 13.55L19.03 13.55L19.03 11.83L19.03 11.83Q18.59 12.68 17.81 13.15L17.81 13.15L17.81 13.15Q17.02 13.61 16.03 13.61L16.03 13.61L16.03 13.61Q15.01 13.61 14.18 13.13L14.18 13.13L14.18 13.13Q13.36 12.66 12.89 11.82L12.89 11.82L12.89 11.82Q12.42 10.98 12.42 9.90L12.42 9.90L12.42 9.90Q12.42 8.82 12.89 7.97L12.89 7.97L12.89 7.97Q13.36 7.13 14.18 6.66L14.18 6.66L14.18 6.66Q15.01 6.19 16.03 6.19L16.03 6.19L16.03 6.19Q17.01 6.19 17.79 6.65L17.79 6.65L17.79 6.65Q18.56 7.11 19.01 7.94L19.01 7.94L19.01 3.16ZM16.07 12.98L16.07 12.98Q16.91 12.98 17.58 12.59L17.58 12.59L17.58 12.59Q18.24 12.19 18.63 11.49L18.63 11.49L18.63 11.49Q19.01 10.79 19.01 9.90L19.01 9.90L19.01 9.90Q19.01 9.00 18.63 8.30L18.63 8.30L18.63 8.30Q18.24 7.60 17.58 7.21L17.58 7.21L17.58 7.21Q16.91 6.82 16.07 6.82L16.07 6.82L16.07 6.82Q15.23 6.82 14.57 7.21L14.57 7.21L14.57 7.21Q13.90 7.60 13.52 8.30L13.52 8.30L13.52 8.30Q13.13 9.00 13.13 9.90L13.13 9.90L13.13 9.90Q13.13 10.79 13.52 11.49L13.52 11.49L13.52 11.49Q13.90 12.19 14.57 12.59L14.57 12.59L14.57 12.59Q15.23 12.98 16.07 12.98L16.07 12.98ZM28.85 9.87L28.84 10.07L22.55 10.07L22.55 10.07Q22.58 10.92 22.99 11.58L22.99 11.58L22.99 11.58Q23.39 12.25 24.09 12.61L24.09 12.61L24.09 12.61Q24.78 12.98 25.65 12.98L25.65 12.98L25.65 12.98Q26.36 12.98 26.97 12.72L26.97 12.72L26.97 12.72Q27.58 12.46 27.99 11.96L27.99 11.96L28.39 12.42L28.39 12.42Q27.92 12.99 27.20 13.30L27.20 13.30L27.20 13.30Q26.47 13.61 25.63 13.61L25.63 13.61L25.63 13.61Q24.54 13.61 23.69 13.13L23.69 13.13L23.69 13.13Q22.83 12.66 22.35 11.82L22.35 11.82L22.35 11.82Q21.87 10.98 21.87 9.90L21.87 9.90L21.87 9.90Q21.87 8.83 22.32 7.99L22.32 7.99L22.32 7.99Q22.78 7.14 23.58 6.66L23.58 6.66L23.58 6.66Q24.37 6.19 25.37 6.19L25.37 6.19L25.37 6.19Q26.36 6.19 27.15 6.66L27.15 6.66L27.15 6.66Q27.94 7.13 28.40 7.97L28.40 7.97L28.40 7.97Q28.85 8.81 28.85 9.87L28.85 9.87ZM25.37 6.80L25.37 6.80Q24.60 6.80 23.98 7.15L23.98 7.15L23.98 7.15Q23.37 7.49 23.00 8.11L23.00 8.11L23.00 8.11Q22.62 8.74 22.57 9.52L22.57 9.52L28.17 9.52L28.17 9.52Q28.13 8.74 27.75 8.12L27.75 8.12L27.75 8.12Q27.37 7.50 26.75 7.15L26.75 7.15L26.75 7.15Q26.14 6.80 25.37 6.80L25.37 6.80ZM32.87 13.61L32.87 13.61Q31.99 13.61 31.19 13.34L31.19 13.34L31.19 13.34Q30.39 13.08 29.95 12.67L29.95 12.67L30.27 12.11L30.27 12.11Q30.72 12.49 31.42 12.74L31.42 12.74L31.42 12.74Q32.13 12.99 32.90 12.99L32.90 12.99L32.90 12.99Q34.01 12.99 34.53 12.63L34.53 12.63L34.53 12.63Q35.06 12.26 35.06 11.62L35.06 11.62L35.06 11.62Q35.06 11.16 34.77 10.89L34.77 10.89L34.77 10.89Q34.48 10.63 34.06 10.50L34.06 10.50L34.06 10.50Q33.64 10.37 32.90 10.23L32.90 10.23L32.90 10.23Q32.03 10.08 31.50 9.90L31.50 9.90L31.50 9.90Q30.97 9.72 30.59 9.31L30.59 9.31L30.59 9.31Q30.21 8.90 30.21 8.19L30.21 8.19L30.21 8.19Q30.21 7.32 30.93 6.75L30.93 6.75L30.93 6.75Q31.65 6.19 32.98 6.19L32.98 6.19L32.98 6.19Q33.68 6.19 34.37 6.38L34.37 6.38L34.37 6.38Q35.06 6.58 35.49 6.90L35.49 6.90L35.17 7.46L35.17 7.46Q34.72 7.14 34.15 6.97L34.15 6.97L34.15 6.97Q33.57 6.80 32.97 6.80L32.97 6.80L32.97 6.80Q31.95 6.80 31.43 7.18L31.43 7.18L31.43 7.18Q30.91 7.56 30.91 8.18L30.91 8.18L30.91 8.18Q30.91 8.67 31.21 8.94L31.21 8.94L31.21 8.94Q31.50 9.21 31.93 9.34L31.93 9.34L31.93 9.34Q32.35 9.48 33.12 9.63L33.12 9.63L33.12 9.63Q33.98 9.79 34.50 9.96L34.50 9.96L34.50 9.96Q35.03 10.14 35.39 10.53L35.39 10.53L35.39 10.53Q35.76 10.92 35.76 11.61L35.76 11.61L35.76 11.61Q35.76 12.52 35 13.06L35 13.06L35 13.06Q34.24 13.61 32.87 13.61L32.87 13.61Z"></path></g><!----><!----></svg>